<?xml version="1.0" encoding="UTF-8"?>
<!DOCTYPE svg PUBLIC "-//W3C//DTD SVG 1.1//EN" "http://www.w3.org/Graphics/SVG/1.1/DTD/svg11.dtd">
<!-- Creator: CorelDRAW X7 -->
<svg xmlns="http://www.w3.org/2000/svg" xml:space="preserve" width="100%" height="100%" version="1.1" shape-rendering="geometricPrecision" text-rendering="geometricPrecision" image-rendering="optimizeQuality" fill-rule="evenodd" clip-rule="evenodd"
viewBox="0 0 16037 3239"
 xmlns:xlink="http://www.w3.org/1999/xlink">
 <g id="Vrstva_x0020_1">
  <metadata id="CorelCorpID_0Corel-Layer"/>
  <g id="_1542624155984">
   <path fill="white" fill-rule="nonzero" d="M5799 2165l0 -1092 -204 0 0 539c0,115 2,222 2,224l-4 0 -556 -763 -211 0 0 1092 205 0 0 -530c0,-129 -4,-246 -4,-248l6 0 556 778 210 0zm1094 -257l95 257 213 0 -427 -1092 -248 0 -427 1092 209 0 95 -257 490 0zm-65 -177l-360 0 72 -197 105 -289 6 0c2,2 29,90 100,277l77 209zm1745 434l453 -1092 -219 0 -201 502c-99,247 -142,364 -144,368l-6 0c-2,-4 -47,-125 -144,-370l-205 -500 -226 0 450 1092 242 0zm632 -546c0,332 247,568 577,568 331,0 581,-236 581,-568 0,-329 -250,-567 -581,-567 -330,0 -577,238 -577,567zm206 0c0,-226 156,-380 371,-380 214,0 372,154 372,380 0,227 -158,381 -372,381 -215,0 -371,-154 -371,-381zm1279 -546l0 1092 406 0c345,0 600,-197 600,-542 0,-343 -255,-550 -606,-550l-400 0zm205 901l0 -710 193 0c243,0 401,119 401,359 0,242 -159,351 -395,351l-199 0zm1310 -1006l185 -271 -172 -57 -208 328 195 0zm-180 1197l205 0 0 -1092 -205 0 0 1092zm1476 -901l0 -191 -944 0 0 191 371 0 0 901 204 0 0 -901 369 0zm1080 901l236 0 -443 -659 411 -433 -255 0 -361 388c-60,65 -103,112 -130,139l-6 0 2 -242 0 -285 -205 0 0 1092 205 0 0 -323 189 -199 357 522zm1456 -1092l-203 0 0 622c0,207 -92,305 -277,305 -187,0 -277,-98 -277,-305l0 -622 -208 0 0 603c0,349 181,511 481,511 300,0 484,-162 484,-511l0 -603z"/>
   <path fill="white" fill-rule="nonzero" d="M1672 2609c30,28 68,44 109,44 40,0 80,-16 109,-44l1583 -1608 0 -577 -1976 2007 175 178zm-297 630c-86,0 -170,-35 -231,-95l-1144 -1162 0 -1071 1375 1396 2272 -2307 0 1071 -1634 1660 -406 412c-62,61 -145,96 -232,96z"/>
  </g>
 </g>
</svg>
